<mxfile host="app.diagrams.net" modified="2020-09-11T16:41:44.187Z" agent="5.0 (Windows NT 10.0; Win64; x64) AppleWebKit/537.36 (KHTML, like Gecko) Chrome/85.0.4183.102 Safari/537.36" etag="hUwJMHaJ7IBv0tznyGmb" version="13.6.9" type="github">
  <diagram id="ni7qQaf_fB1tniAwRtNp" name="Page-1">
    <mxGraphModel dx="1483" dy="829" grid="1" gridSize="10" guides="1" tooltips="1" connect="1" arrows="1" fold="1" page="1" pageScale="1" pageWidth="850" pageHeight="1100" math="0" shadow="0">
      <root>
        <mxCell id="0" />
        <mxCell id="1" parent="0" />
        <mxCell id="m9BW8e9yrHPexQuClSIB-15" style="edgeStyle=orthogonalEdgeStyle;rounded=0;orthogonalLoop=1;jettySize=auto;html=1;" edge="1" parent="1" source="m9BW8e9yrHPexQuClSIB-1" target="m9BW8e9yrHPexQuClSIB-4">
          <mxGeometry relative="1" as="geometry" />
        </mxCell>
        <mxCell id="m9BW8e9yrHPexQuClSIB-1" value="Start" style="ellipse;whiteSpace=wrap;html=1;" vertex="1" parent="1">
          <mxGeometry x="120" y="40" width="120" height="80" as="geometry" />
        </mxCell>
        <mxCell id="m9BW8e9yrHPexQuClSIB-16" style="edgeStyle=orthogonalEdgeStyle;rounded=0;orthogonalLoop=1;jettySize=auto;html=1;" edge="1" parent="1" source="m9BW8e9yrHPexQuClSIB-4" target="m9BW8e9yrHPexQuClSIB-12">
          <mxGeometry relative="1" as="geometry" />
        </mxCell>
        <mxCell id="m9BW8e9yrHPexQuClSIB-4" value="Get input &quot;starting&lt;br&gt;balance in dollars&quot;" style="shape=parallelogram;perimeter=parallelogramPerimeter;whiteSpace=wrap;html=1;fixedSize=1;" vertex="1" parent="1">
          <mxGeometry x="100" y="150" width="160" height="60" as="geometry" />
        </mxCell>
        <mxCell id="m9BW8e9yrHPexQuClSIB-23" style="edgeStyle=orthogonalEdgeStyle;rounded=0;orthogonalLoop=1;jettySize=auto;html=1;entryX=0.5;entryY=0;entryDx=0;entryDy=0;" edge="1" parent="1" source="m9BW8e9yrHPexQuClSIB-5" target="m9BW8e9yrHPexQuClSIB-22">
          <mxGeometry relative="1" as="geometry" />
        </mxCell>
        <mxCell id="m9BW8e9yrHPexQuClSIB-5" value="Get input &quot;yearly contribution&lt;br&gt;in dollars&quot;" style="shape=parallelogram;perimeter=parallelogramPerimeter;whiteSpace=wrap;html=1;fixedSize=1;" vertex="1" parent="1">
          <mxGeometry x="85" y="320" width="190" height="60" as="geometry" />
        </mxCell>
        <mxCell id="m9BW8e9yrHPexQuClSIB-30" style="edgeStyle=orthogonalEdgeStyle;rounded=0;orthogonalLoop=1;jettySize=auto;html=1;entryX=0.5;entryY=0;entryDx=0;entryDy=0;" edge="1" parent="1" source="m9BW8e9yrHPexQuClSIB-8" target="m9BW8e9yrHPexQuClSIB-28">
          <mxGeometry relative="1" as="geometry">
            <Array as="points">
              <mxPoint x="180" y="590" />
              <mxPoint x="350" y="590" />
            </Array>
          </mxGeometry>
        </mxCell>
        <mxCell id="m9BW8e9yrHPexQuClSIB-8" value="Get input &quot;Average return on investment as %&quot;" style="shape=parallelogram;perimeter=parallelogramPerimeter;whiteSpace=wrap;html=1;fixedSize=1;" vertex="1" parent="1">
          <mxGeometry x="85" y="510" width="190" height="60" as="geometry" />
        </mxCell>
        <mxCell id="m9BW8e9yrHPexQuClSIB-34" style="edgeStyle=orthogonalEdgeStyle;rounded=0;orthogonalLoop=1;jettySize=auto;html=1;entryX=0.5;entryY=0;entryDx=0;entryDy=0;" edge="1" parent="1" source="m9BW8e9yrHPexQuClSIB-10" target="m9BW8e9yrHPexQuClSIB-33">
          <mxGeometry relative="1" as="geometry" />
        </mxCell>
        <mxCell id="m9BW8e9yrHPexQuClSIB-10" value="Get input &quot;Number of years&quot;" style="shape=parallelogram;perimeter=parallelogramPerimeter;whiteSpace=wrap;html=1;fixedSize=1;" vertex="1" parent="1">
          <mxGeometry x="85" y="750" width="190" height="60" as="geometry" />
        </mxCell>
        <mxCell id="m9BW8e9yrHPexQuClSIB-25" value="no" style="edgeStyle=orthogonalEdgeStyle;rounded=0;orthogonalLoop=1;jettySize=auto;html=1;entryX=1;entryY=0;entryDx=0;entryDy=0;" edge="1" parent="1" source="m9BW8e9yrHPexQuClSIB-12" target="m9BW8e9yrHPexQuClSIB-4">
          <mxGeometry relative="1" as="geometry">
            <Array as="points">
              <mxPoint x="410" y="270" />
              <mxPoint x="410" y="130" />
              <mxPoint x="260" y="130" />
            </Array>
          </mxGeometry>
        </mxCell>
        <mxCell id="m9BW8e9yrHPexQuClSIB-12" value="is input&lt;br&gt;a number?" style="rhombus;whiteSpace=wrap;html=1;" vertex="1" parent="1">
          <mxGeometry x="310" y="230" width="80" height="80" as="geometry" />
        </mxCell>
        <mxCell id="m9BW8e9yrHPexQuClSIB-20" value="yes" style="edgeStyle=orthogonalEdgeStyle;rounded=0;orthogonalLoop=1;jettySize=auto;html=1;entryX=0.5;entryY=0;entryDx=0;entryDy=0;" edge="1" parent="1" source="m9BW8e9yrHPexQuClSIB-12" target="m9BW8e9yrHPexQuClSIB-5">
          <mxGeometry relative="1" as="geometry">
            <mxPoint x="180" y="380" as="sourcePoint" />
          </mxGeometry>
        </mxCell>
        <mxCell id="m9BW8e9yrHPexQuClSIB-26" value="no" style="edgeStyle=orthogonalEdgeStyle;rounded=0;orthogonalLoop=1;jettySize=auto;html=1;" edge="1" parent="1" source="m9BW8e9yrHPexQuClSIB-22">
          <mxGeometry relative="1" as="geometry">
            <mxPoint x="220" y="390" as="targetPoint" />
          </mxGeometry>
        </mxCell>
        <mxCell id="m9BW8e9yrHPexQuClSIB-27" value="yes" style="edgeStyle=orthogonalEdgeStyle;rounded=0;orthogonalLoop=1;jettySize=auto;html=1;" edge="1" parent="1" source="m9BW8e9yrHPexQuClSIB-22" target="m9BW8e9yrHPexQuClSIB-8">
          <mxGeometry relative="1" as="geometry">
            <Array as="points">
              <mxPoint x="350" y="540" />
            </Array>
          </mxGeometry>
        </mxCell>
        <mxCell id="m9BW8e9yrHPexQuClSIB-22" value="is input&lt;br&gt;a number?" style="rhombus;whiteSpace=wrap;html=1;" vertex="1" parent="1">
          <mxGeometry x="310" y="400" width="80" height="80" as="geometry" />
        </mxCell>
        <mxCell id="m9BW8e9yrHPexQuClSIB-31" value="no" style="edgeStyle=orthogonalEdgeStyle;rounded=0;orthogonalLoop=1;jettySize=auto;html=1;entryX=0.338;entryY=1.03;entryDx=0;entryDy=0;entryPerimeter=0;" edge="1" parent="1" source="m9BW8e9yrHPexQuClSIB-28" target="m9BW8e9yrHPexQuClSIB-8">
          <mxGeometry relative="1" as="geometry" />
        </mxCell>
        <mxCell id="m9BW8e9yrHPexQuClSIB-32" value="yes" style="edgeStyle=orthogonalEdgeStyle;rounded=0;orthogonalLoop=1;jettySize=auto;html=1;entryX=1;entryY=0.5;entryDx=0;entryDy=0;" edge="1" parent="1" source="m9BW8e9yrHPexQuClSIB-28" target="m9BW8e9yrHPexQuClSIB-10">
          <mxGeometry relative="1" as="geometry">
            <Array as="points">
              <mxPoint x="350" y="780" />
            </Array>
          </mxGeometry>
        </mxCell>
        <mxCell id="m9BW8e9yrHPexQuClSIB-28" value="is input&lt;br&gt;a number?" style="rhombus;whiteSpace=wrap;html=1;" vertex="1" parent="1">
          <mxGeometry x="310" y="610" width="80" height="80" as="geometry" />
        </mxCell>
        <mxCell id="m9BW8e9yrHPexQuClSIB-36" style="edgeStyle=orthogonalEdgeStyle;rounded=0;orthogonalLoop=1;jettySize=auto;html=1;entryX=0.548;entryY=0.002;entryDx=0;entryDy=0;entryPerimeter=0;" edge="1" parent="1" source="m9BW8e9yrHPexQuClSIB-33" target="m9BW8e9yrHPexQuClSIB-35">
          <mxGeometry relative="1" as="geometry" />
        </mxCell>
        <mxCell id="m9BW8e9yrHPexQuClSIB-33" value="calculate balance at the end of each year for 4 years" style="rounded=0;whiteSpace=wrap;html=1;" vertex="1" parent="1">
          <mxGeometry x="120" y="890" width="120" height="60" as="geometry" />
        </mxCell>
        <mxCell id="m9BW8e9yrHPexQuClSIB-38" style="edgeStyle=orthogonalEdgeStyle;rounded=0;orthogonalLoop=1;jettySize=auto;html=1;entryX=0;entryY=0.5;entryDx=0;entryDy=0;" edge="1" parent="1" source="m9BW8e9yrHPexQuClSIB-35" target="m9BW8e9yrHPexQuClSIB-37">
          <mxGeometry relative="1" as="geometry" />
        </mxCell>
        <mxCell id="m9BW8e9yrHPexQuClSIB-35" value="Display each calculation using format:&lt;br&gt;&amp;nbsp;&quot;year 0:__ &lt;br&gt;year 1:__ &lt;br&gt;year 2:__ &lt;br&gt;year 3:__&quot;" style="shape=parallelogram;perimeter=parallelogramPerimeter;whiteSpace=wrap;html=1;fixedSize=1;" vertex="1" parent="1">
          <mxGeometry x="330" y="950" width="200" height="90" as="geometry" />
        </mxCell>
        <mxCell id="m9BW8e9yrHPexQuClSIB-37" value="end" style="ellipse;whiteSpace=wrap;html=1;" vertex="1" parent="1">
          <mxGeometry x="670" y="955" width="120" height="80" as="geometry" />
        </mxCell>
      </root>
    </mxGraphModel>
  </diagram>
</mxfile>
